<?xml version="1.0" encoding="utf-8"?>
<!-- Generator: Adobe Illustrator 26.1.0, SVG Export Plug-In . SVG Version: 6.00 Build 0)  -->
<svg version="1.1" xmlns="http://www.w3.org/2000/svg" xmlns:xlink="http://www.w3.org/1999/xlink" x="0px" y="0px"
	 viewBox="0 0 48 48" style="enable-background:new 0 0 48 48;" xml:space="preserve">
<style type="text/css">
	.st0{display:none;}
	.st1{fill:#FF5722;}
	.st2{fill:#1C0802;}
	.st3{display:inline;fill:#1C0802;}
	.st4{display:inline;}
	.st5{fill:#3E3D42;stroke:#000000;stroke-miterlimit:10;}
	.st6{fill:#C3A734;stroke:#000000;stroke-miterlimit:10;}
	.st7{fill:#E0E0E2;stroke:#000000;stroke-width:0.75;stroke-miterlimit:10;}
	.st8{fill:#E0E0E2;stroke:#000000;stroke-width:1.5;stroke-miterlimit:10;}
	.st9{fill:#78B9EB;stroke:#000000;stroke-miterlimit:10;}
</style>
<g id="Capa_1" class="st0">
	<path class="st1" d="M6,10c0-2.2,1.8-4,4-4h28c2.2,0,4,1.8,4,4v28c0,2.2-1.8,4-4,4H10c-2.2,0-4-1.8-4-4V10z"/>
	<path class="st2" d="M9,9v30h30V9H9z M23.7,31l-0.8-2.9H19L18.3,31h-3l4.4-14.2h2.6L26.8,31H23.7z M30.9,31h-2.8V20.4h2.8V31z
		 M30.6,18.8c-0.3,0.3-0.6,0.4-1.1,0.4s-0.8-0.1-1.1-0.4s-0.4-0.6-0.4-1.1c0-0.4,0.1-0.8,0.4-1.1s0.6-0.4,1.1-0.4s0.8,0.1,1.1,0.4
		s0.4,0.6,0.4,1.1C31,18.1,30.8,18.5,30.6,18.8z"/>
	<path class="st3" d="M19.6,25.7h2.7L21,20.6L19.6,25.7z"/>
	
		<image style="display:inline;overflow:visible;" width="64" height="64" xlink:href="icons8-pc-64.png"  transform="matrix(0.75 0 0 0.75 0 0)">
	</image>
	<g id="Capa_2" class="st4">
	</g>
</g>
<g id="Capa_3">
	<rect x="28.7" y="6" class="st5" width="17.7" height="36"/>
	<circle class="st6" cx="37.5" cy="37.9" r="1.4"/>
	<rect x="13.9" y="36.5" class="st7" width="8.4" height="2.9"/>
	<rect x="1.5" y="13.6" class="st8" width="33.2" height="23"/>
	<rect x="3.6" y="15.7" class="st9" width="28.8" height="19"/>
	<rect x="10.9" y="39.4" class="st7" width="14.3" height="2.9"/>
	<rect x="31.5" y="8" class="st7" width="12.5" height="3.6"/>
</g>
</svg>
