<?xml version="1.0" encoding="utf-8"?>
<!-- Generator: Adobe Illustrator 26.1.0, SVG Export Plug-In . SVG Version: 6.00 Build 0)  -->
<svg version="1.1" xmlns="http://www.w3.org/2000/svg" xmlns:xlink="http://www.w3.org/1999/xlink" x="0px" y="0px"
	 viewBox="0 0 512 686" style="enable-background:new 0 0 512 686;" xml:space="preserve">
<style type="text/css">
	.st0{display:none;}
	.st1{display:inline;fill:#7F7F7F;}
	.st2{display:inline;fill:#FF5722;}
	.st3{display:inline;fill:#FAFAFA;}
	.st4{display:inline;fill:#FCF7F7;}
	.st5{font-family:'Arial-BoldMT';}
	.st6{font-size:160px;}
	.st7{display:inline;}
	.st8{fill:#563D7C;}
	.st9{fill:#FFFFFF;}
	.st10{display:inline;fill:#EFEDED;}
	.st11{font-size:106.7523px;}
	.st12{display:inline;fill:#2196F3;}
	.st13{display:inline;fill:#F7F7F7;}
	.st14{display:inline;fill:#FFFFFF;}
	.st15{font-size:162.1556px;}
	.st16{fill:#DB380E;}
	.st17{fill:#73A1FB;}
	.st18{fill:#F4F4F4;}
	.st19{font-size:170.8392px;}
</style>
<g id="Capa_4" class="st0">
	<rect x="-17.9" y="-17.3" class="st1" width="573.1" height="740.2"/>
</g>
<g id="HTML" xmlns:v="https://vecta.io/nano" class="st0">
	<path class="st2" d="M32,0l40.8,460.8L256,512l183.1-51.2L480,0H32z"/>
	<path class="st3" d="M391.5,150.7H176.8l5.1,57.9h204.5L371,382.1l-115.1,32.1L141,382.1l-8-90.8h56.3l4.2,47.1l62.6,17l62.6-17
		l6.5-73.3H130.6L115.5,94.2h281.1L391.5,150.7z"/>
	<text transform="matrix(1 0 0 1 52.6562 658)" class="st4 st5 st6">HTML</text>
</g>
<g id="BossTrap" class="st0">
	<g class="st7">
		<path class="st8" d="M18.1,444.2c0,36.3,27.4,65.7,61.1,65.7h351.8c33.7,0,61.1-29.5,61.1-65.7V65.7c0-36.3-27.4-65.7-61.1-65.7
			H79.2C45.5,0,18.1,29.5,18.1,65.7V444.2z"/>
		<path class="st9" d="M214.8,225.5v-72.1h59.1c5.6,0,11.1,0.6,16.3,1.6s9.8,2.8,13.9,5.4c4.1,2.6,7.2,6.2,9.6,10.8
			c2.4,4.6,3.7,10.6,3.7,17.7c0,12.9-3.7,22.3-10.9,28.1c-7.2,5.8-16.5,8.6-27.8,8.6L214.8,225.5L214.8,225.5z M151.6,100.6v308.7
			h139.1c12.8,0,25.4-1.8,37.6-5.2c12.2-3.4,23-8.8,32.6-15.9c9.4-7.2,17-16.5,22.8-27.9c5.7-11.4,8.5-24.9,8.5-40.4
			c0-19.3-4.4-35.9-13.1-49.6c-8.7-13.7-21.9-23.3-39.6-28.7c12.8-6.6,22.6-15.1,29.1-25.5c6.5-10.4,9.8-23.3,9.8-38.8
			c0-14.3-2.2-26.5-6.7-36.3c-4.4-9.8-10.7-17.7-18.7-23.5c-8-6-17.8-10.2-28.9-12.7s-23.7-4-37.4-4h-135V100.6z M214.8,356.5v-84.7
			h68.7c13.7,0,24.6,3.4,33,10.2c8.3,6.8,12.4,18.1,12.4,33.9c0,8.2-1.3,14.7-3.9,19.9s-5.9,9.4-10.2,12.3c-4.3,3-9.3,5.2-14.8,6.6
			s-11.5,2-17.8,2h-67.4V356.5z"/>
	</g>
	<text transform="matrix(0.9367 0 0 1 19.8916 635.0254)" class="st10 st5 st11">Bootstrap</text>
</g>
<g id="Capa_3" class="st0">
	<path class="st12" d="M30.8,0l41.8,461.4L256,512.6l183.4-51.3L481.3,0H30.8z"/>
	<path class="st13" d="M394.4,150.6l-19.3,230.7l-115.8,32l-115.8-32l-12.9-89.7h57.9l3.2,48.1l64.3,16l0,0l64.3-16l9.7-76.9
		l-202.7-3.2l-3.2-51.3l209.1-3.2l3.2-57.7H117.7l-3.2-54.5h286.3L394.4,150.6z"/>
	<text transform="matrix(1.1272 0 0 1 68.0803 661.834)" class="st14 st5 st15">CSS</text>
</g>
<g id="Capa_5">
	<g>
		<path class="st16" d="M251.6,91.4c-23.7,16-50.5,34.2-64.8,64.2c-25,52.4,51.1,109.5,54.3,111.9c0.8,0.6,1.7,0.9,2.6,0.9
			c1,0,1.9-0.3,2.7-1c1.5-1.3,1.9-3.3,1-5c-0.3-0.5-27.6-51.5-26.5-88.2c0.4-12.7,18.9-27.2,38.5-42.5c18-14.1,38.3-29.9,50.3-48.5
			c26.2-40.9-2.9-81.1-3.2-81.5c-1.2-1.5-3.3-2.1-5.1-1.3c-1.8,0.8-2.8,2.7-2.4,4.5c0.1,0.3,5.7,26.9-10,54.3
			C282.3,70.5,268.1,80.2,251.6,91.4z"/>
		<path class="st16" d="M351.2,109.4c1.7-1.3,2.2-3.5,1.1-5.2c-1-1.7-3.2-2.5-5.2-1.8c-4,1.4-98.4,36.5-98.4,78.8
			c0,29.2,12.9,44.6,22.4,55.8c3.7,4.4,6.9,8.2,8,11.5c3,9.3-4.1,26.4-7,32c-0.9,1.6-0.4,3.7,1,4.8c0.8,0.7,1.8,1,2.7,1
			c0.8,0,1.7-0.2,2.4-0.8c1.6-1.1,39.7-26.9,32.8-58.1c-2.5-11.8-8.6-20.5-13.9-28.2c-8.3-11.8-14.2-20.4-5.2-36.2
			C302.6,144.7,350.7,109.8,351.2,109.4z"/>
	</g>
	<g>
		<path class="st17" d="M105.5,287c-1.6,4.6-0.9,9.3,2.2,13.4c10.2,13.7,46.5,21.2,102.1,21.2l0,0c7.5,0,15.5-0.1,23.6-0.4
			c88.9-3.1,121.8-29.7,123.2-30.8c1.5-1.3,1.9-3.3,1-4.9c-0.9-1.6-2.9-2.5-4.8-2c-31.3,8.2-89.8,11.1-130.3,11.1
			c-45.4,0-68.5-3.2-74.1-5.5c2.9-3.8,20.8-10.7,43-14.9c2.1-0.4,3.6-2.3,3.4-4.3c-0.2-2-2-3.7-4.2-3.7
			C177.5,266.2,112.3,267.2,105.5,287z"/>
		<path class="st17" d="M402.9,259.6c-18.3,0-35.7,8.9-36.4,9.2c-1.7,0.9-2.6,2.8-2.1,4.5c0.5,1.8,2.1,3.1,4.1,3.1
			c0.4,0,39.1,0.3,42.6,21.6c3.1,18.4-36.6,48.1-52.2,58c-1.7,1.1-2.3,3.2-1.6,4.9c0.7,1.5,2.2,2.5,3.9,2.5c0.3,0,0.6,0,0.9-0.1
			c3.7-0.8,90.4-19.2,81.2-67.8C437.7,265.9,418.2,259.6,402.9,259.6z"/>
		<path class="st17" d="M343.4,350.2c0.3-1.5-0.4-3.2-1.7-4l-20.8-14.1c-1-0.7-2.3-0.9-3.5-0.6c-0.2,0.1-22,5.6-53.5,9
			c-12.5,1.3-26.6,2-40.6,2c-31.6,0-52.2-3.6-55.2-6.2c-0.4-0.8-0.3-1.1-0.2-1.3c0.5-1.4,3.5-3.2,5.4-3.8c2.1-0.8,3.2-2.9,2.6-5
			c-0.6-2-2.8-3.3-5-2.8c-20.9,4.8-31.1,11.6-30.3,20.1c1.3,15.1,37.7,22.8,68.4,24.9c4.4,0.3,9.2,0.5,14.2,0.5l0,0
			c51.1,0,116.5-15.4,117.2-15.6C341.9,353,343.1,351.7,343.4,350.2z"/>
		<path class="st17" d="M186.7,382.5c1.6-1,2.3-2.9,1.7-4.6c-0.6-1.7-2.2-2.9-4.1-2.8c-2.8,0.1-27.3,1.2-29.1,16.2
			c-0.5,4.5,0.8,8.6,4,12.2c8.8,10,32.6,16.1,72.7,18.3c4.7,0.3,9.6,0.4,14.3,0.4c51,0,85.4-15.4,86.8-16.1c1.4-0.7,2.3-1.9,2.4-3.5
			s-0.7-2.9-2-3.7l-26.3-15.4c-0.9-0.6-2-0.7-3-0.5c-0.2,0-16.8,3.4-42,6.6c-4.8,0.6-10.7,1-17.7,1c-25.1,0-53.1-3.9-58.5-6.5
			C185.8,383.7,185.9,383.1,186.7,382.5z"/>
		<path class="st17" d="M222.5,468.6c116.9-0.1,179.6-20.1,191.7-32.7c4.3-4.4,4.7-8.7,4.4-11.5c-0.9-6.7-7.3-11-8-11.4
			c-1.8-1.1-4.1-0.8-5.5,0.7c-1.4,1.5-1.4,3.8,0,5.3c0.7,0.9,1.2,2.4-1,4.5c-4.8,4.3-53.5,17.5-134.7,21.5
			c-11.1,0.6-22.8,0.9-34.6,0.9c-72.6,0-125.8-9.5-132.7-15.1c2.7-3.8,21.5-9.6,41.5-13c2.3-0.4,3.8-2.4,3.4-4.6
			c-0.3-2.2-2.4-3.7-4.7-3.4c-0.6,0.1-2.5,0.2-4.7,0.3c-33,1.9-71.1,6.3-73.1,22.6c-0.6,5,0.9,9.5,4.6,13.5
			C77.9,455.7,103.5,468.5,222.5,468.6L222.5,468.6z"/>
		<path class="st17" d="M437.1,439.5c-1.7-0.8-3.6-0.4-4.8,1c-0.2,0.2-17.7,17.9-70.6,28.2c-20.2,3.9-58.2,5.9-112.8,5.9
			c-54.7,0-106.8-2.1-107.4-2.1c-2.2-0.1-4,1.4-4.3,3.5c-0.3,2,1.1,4,3.2,4.5c0.5,0.1,55.1,12.4,129.8,12.4
			c35.8,0,70.6-2.8,103.5-8.3c61.4-10.4,65.7-39.6,65.8-40.9C439.7,441.9,438.8,440.1,437.1,439.5z"/>
	</g>
	<text transform="matrix(1.1529 0 0 1 36.9233 658.5645)" class="st18 st5 st19">Java</text>
</g>
</svg>
